<svg xmlns="http://www.w3.org/2000/svg" viewBox="0 0 480 400" width="100%" height="100%">
  <defs>
    <!-- Light cyan to mid blue gradient for N -->
    <linearGradient id="gradN" x1="0%" y1="0%" x2="100%" y2="100%">
      <stop offset="0%" stop-color="#7dd3fc" />
      <stop offset="50%" stop-color="#38bdf8" />
      <stop offset="100%" stop-color="#2563eb" />
    </linearGradient>

    <!-- Blue to deep indigo gradient for S -->
    <linearGradient id="gradS" x1="20%" y1="0%" x2="100%" y2="100%">
      <stop offset="0%" stop-color="#3b82f6" />
      <stop offset="55%" stop-color="#2563eb" />
      <stop offset="100%" stop-color="#7c3aed" />
    </linearGradient>
  </defs>

  <!-- ══════ N — Bold geometric letterform ══════ -->
  <path d="
    M 40 350
    L 40 50
    L 105 50
    L 240 260
    L 240 50
    L 300 50
    L 300 350
    L 235 350
    L 100 140
    L 100 350
    Z
  " fill="url(#gradN)" />

  <!-- ══════ S — Flowing bold curves ══════ -->
  <path d="
    M 388 96
    C 362 68, 318 52, 282 56
    C 244 60, 216 82, 216 118
    C 216 156, 248 176, 296 194
    C 340 210, 392 234, 392 286
    C 392 340, 348 362, 300 362
    C 254 362, 220 336, 210 306
    L 270 286
    C 278 308, 296 320, 316 320
    C 340 320, 356 306, 356 284
    C 356 258, 326 242, 280 224
    C 234 206, 184 180, 184 132
    C 184 78, 228 44, 290 44
    C 340 44, 374 66, 396 92
    Z
  " fill="url(#gradS)" />
</svg>
